<?xml version="1.0" encoding="UTF-8"?>
<svg version="1.1" xmlns="http://www.w3.org/2000/svg" width="500" height="500">
<path d="M0 0 C2.70097587 0.05401952 4.43853605 0.42664575 6.36035156 2.38916016 C7.84194182 4.32666508 9.24213925 6.30331294 10.625 8.3125 C15.3435681 14.93854275 20.36089915 20.80251575 26.11328125 26.546875 C28 29 28 29 27.94921875 30.92578125 C27.63597656 31.61027344 27.32273437 32.29476562 27 33 C26.6184375 34.00933594 26.236875 35.01867187 25.84375 36.05859375 C24.94881082 38.30894955 24.05297913 40.55895062 23.15625 42.80859375 C19.20888043 53.70386719 19.16942441 68.24691276 23.87890625 78.85546875 C30.36954524 91.27136007 40.79573281 99.55491365 54.04296875 104.02734375 C61.24359538 105.93926707 68.62657145 106.98912673 76 108 C76.04707003 110.31689141 76.05506993 112.62401672 76.015625 114.94140625 C75.96083965 118.03913807 75.96083965 118.03913807 76.234375 121.27734375 C76.31877218 124.89376298 76.17991759 127.56990499 75 131 C71.08860153 134.59363346 66.74538815 136.73354596 62 139 C60.51462551 139.82221718 59.03450654 140.6540832 57.5625 141.5 C56.86125 141.88285156 56.16 142.26570312 55.4375 142.66015625 C49.91479572 145.6958735 44.4589596 148.85154813 39 152 C37.98164063 152.58652344 36.96328125 153.17304688 35.9140625 153.77734375 C35.01429688 154.30457031 34.11453125 154.83179688 33.1875 155.375 C32.00220703 156.06722656 32.00220703 156.06722656 30.79296875 156.7734375 C28.85432863 157.88658341 28.85432863 157.88658341 28 160 C28.70108887 160.26337158 29.40217773 160.52674316 30.12451172 160.7980957 C35.05712278 162.85984169 39.64445537 165.57287767 44.30859375 168.17504883 C46.09638527 169.17155036 47.887793 170.16129056 49.6796875 171.15039062 C67.98657898 181.30138462 79.59020471 190.87739829 90 209 C90.38687988 209.66531738 90.77375977 210.33063477 91.17236328 211.01611328 C97.58883434 222.16483444 102.35280044 233.83420443 106.8293457 245.87573242 C107.66800819 248.11397306 108.52551442 250.34518818 109.39526367 252.5715332 C113.53776448 263.23253619 116.79706668 274.070412 119.9375 285.0625 C120.72277731 287.7837859 121.51041662 290.50438046 122.29829407 293.22491455 C122.81449625 295.00755795 123.33003939 296.79039234 123.84489441 298.57342529 C125.90218632 305.69167464 128.01901859 312.78972907 130.1875 319.875 C130.46650146 320.78773682 130.74550293 321.70047363 131.03295898 322.64086914 C131.99382405 325.77162864 132.96433749 328.89301246 134 332 C134.21043945 331.25548584 134.42087891 330.51097168 134.63769531 329.74389648 C137.63752112 319.1845408 140.72549541 308.65165829 143.84375 298.12670898 C144.44295875 296.10066668 145.04000145 294.07398237 145.63476562 292.04663086 C149.99126869 277.20095313 154.79581608 262.56957348 160 248 C160.77846721 245.80284264 161.55672488 243.60561146 162.33465576 241.40826416 C166.63929118 229.46656343 172.61648796 218.3100049 178.7734375 207.234375 C179.90175609 205.17896661 180.96699756 203.10462179 182 201 C182.66 201 183.32 201 184 201 C184.185625 200.34 184.37125 199.68 184.5625 199 C189.9921027 187.66865524 201.47595778 180.35209094 212.125 174.5625 C214.16149628 173.43236004 216.19795467 172.30215181 218.234375 171.171875 C220.15622692 170.11454139 222.07810034 169.05724684 224 168 C226.7978003 166.44818364 229.58860027 164.88467044 232.375 163.3125 C233.45523437 162.71050781 234.53546875 162.10851562 235.6484375 161.48828125 C238.10747945 160.21555557 238.10747945 160.21555557 239 158 C237.95585937 157.42894531 236.91171875 156.85789062 235.8359375 156.26953125 C226.89446305 151.35398553 218.03635267 146.31318122 209.25 141.125 C208.3223584 140.5781958 207.3947168 140.0313916 206.43896484 139.46801758 C204.70910286 138.44226472 202.98381724 137.40873758 201.26416016 136.3659668 C199.87666467 135.5288914 198.47744734 134.71044559 197.06005859 133.92504883 C194.32491871 132.32948295 193.13799514 131.45082877 192.1953125 128.37109375 C192.17210937 127.40300781 192.14890625 126.43492187 192.125 125.4375 C192.08890625 124.38820313 192.0528125 123.33890625 192.015625 122.2578125 C192.00789063 120.64519531 192.00789063 120.64519531 192 119 C191.96132813 117.41832031 191.96132813 117.41832031 191.921875 115.8046875 C191.83911837 110.5220561 191.83911837 110.5220561 192 108 C193.73271061 106.26728939 196.04531484 106.69553144 198.37109375 106.50708008 C211.84150264 105.34417758 224.01012808 101.54317033 234 92 C234.63421875 91.39414063 235.2684375 90.78828125 235.921875 90.1640625 C245.27133162 80.37510151 247.41498363 69.25837131 247.21875 56.15234375 C246.9484516 48.78502286 245.19783934 42.01258542 241.75 35.5 C240 32 240 32 240.1796875 30.0234375 C241.1933502 27.52306951 242.51218652 26.07905332 244.375 24.125 C249.51623884 18.53831086 254.1180986 12.57415599 258.76757812 6.58007812 C260.49120951 4.37022426 262.24327812 2.18358888 264 0 C265.828125 0.171875 265.828125 0.171875 268 1 C270.58943127 5.0121957 272.20381715 9.58393225 274 14 C274.33112793 14.80211914 274.66225586 15.60423828 275.00341797 16.43066406 C279.53556122 27.49991536 283.26775845 38.12346717 285 50 C285.15876617 50.89921173 285.31753235 51.79842346 285.48110962 52.72488403 C287.07129987 62.39175137 287.30800678 71.85284833 287.33552551 81.63004875 C287.34396874 84.54023936 287.36461443 87.45013842 287.38806152 90.36024475 C287.4358625 96.55261846 287.46899297 102.74502246 287.5 108.9375 C287.1385859 150.61097302 287.1385859 150.61097302 292.53173828 191.81640625 C293.06222171 194.29015173 293.55994313 196.76964689 294.05859375 199.25 C296.18432274 209.62062911 298.67053933 219.83290359 301.625 230 C301.91407227 230.99644531 302.20314453 231.99289062 302.50097656 233.01953125 C304.04163161 238.191604 305.79017921 243.07922419 308 248 C308.75995603 249.97536516 309.5099869 251.95457758 310.25 253.9375 C314.29154063 264.51144014 318.76913496 274.95673913 324 285 C319.9666466 285 318.16482462 283.39120082 315 281 C315 280.34 315 279.68 315 279 C314.40904541 278.72220703 313.81809082 278.44441406 313.20922852 278.15820312 C311.14239902 277.07465366 309.46879643 275.92341179 307.65234375 274.46875 C307.04712891 273.98792969 306.44191406 273.50710938 305.81835938 273.01171875 C305.19767578 272.51285156 304.57699219 272.01398438 303.9375 271.5 C302.69738872 270.50944672 301.45652996 269.51982835 300.21484375 268.53125 C299.39681274 267.87479492 299.39681274 267.87479492 298.56225586 267.20507812 C297.0906753 266.06994425 295.54637801 265.03091867 294 264 C294 263.34 294 262.68 294 262 C293.41476562 261.72414063 292.82953125 261.44828125 292.2265625 261.1640625 C284.85158882 257.30837451 278.44427181 251.20295716 272 246 C268.74495597 249.09363689 266.8656019 251.89567582 265 256 C264.34 256 263.68 256 263 256 C262.91105469 256.52851563 262.82210938 257.05703125 262.73046875 257.6015625 C261.74771524 260.82835744 260.06611514 263.52147054 258.3125 266.375 C257.92747314 267.00913818 257.54244629 267.64327637 257.14575195 268.29663086 C251.72217762 277.17166599 246.13010861 285.94806948 240.48583984 294.68408203 C239.57323356 296.10652423 238.67436906 297.53803925 237.79931641 298.98388672 C236.76953125 300.65234375 236.76953125 300.65234375 235 303 C232 303 232 303 229.875 301.0625 C228.91472518 300.04349277 227.95678425 299.02228537 227 298 C225.44331946 296.41094482 223.88040969 294.82797652 222.3125 293.25 C221.16201172 292.08210937 221.16201172 292.08210937 219.98828125 290.890625 C218.1389301 288.94769385 218.1389301 288.94769385 216 288 C216 287.34 216 286.68 216 286 C215.34 286 214.68 286 214 286 C214 285.34 214 284.68 214 284 C213.34 284 212.68 284 212 284 C212 283.34 212 282.68 212 282 C211.1646875 281.6596875 211.1646875 281.6596875 210.3125 281.3125 C206.319643 279.04628387 203.48522607 275.51988508 200.375 272.1875 C198.17037709 269.66126212 198.17037709 269.66126212 195 270 C193.28627816 272.42490074 191.79327624 274.81030319 190.3125 277.375 C189.33436526 279.02274843 188.35513028 280.66984405 187.375 282.31640625 C186.84003906 283.22148926 186.30507813 284.12657227 185.75390625 285.05908203 C182.500741 290.51393011 179.14943709 295.9086512 175.8125 301.3125 C174.50623611 303.43342483 173.20024144 305.5545155 171.89453125 307.67578125 C169.89983766 310.9162755 167.90369881 314.15583345 165.90332031 317.39282227 C161.55365895 324.43674935 161.55365895 324.43674935 157.3203125 331.55078125 C156.9490625 332.18564453 156.5778125 332.82050781 156.1953125 333.47460938 C155.45374692 334.74799114 154.7170933 336.02424131 153.984375 337.30273438 C153.04397451 338.90174868 152.028995 340.45650749 151 342 C150.34 342 149.68 342 149 342 C148.85304688 342.82951172 148.85304688 342.82951172 148.703125 343.67578125 C147.8285625 346.56669617 146.41978879 348.67192689 144.75 351.1875 C141.60297741 356.01509754 138.72089486 360.92183218 136 366 C134.68 366 133.36 366 132 366 C130.29269027 363.63741999 128.89282322 361.41345596 127.5 358.875 C126.74096825 357.53827515 125.98056539 356.20232788 125.21875 354.8671875 C124.85265625 354.21459961 124.4865625 353.56201172 124.109375 352.88964844 C123.05417923 351.09228593 121.91631551 349.39994579 120.71875 347.6953125 C119 345 119 345 119 342 C118.34 342 117.68 342 117 342 C115.84114221 340.23483259 114.77371125 338.40933043 113.75 336.5625 C111.06817957 331.80606377 108.23602487 327.28393043 105.06640625 322.83984375 C104 321 104 321 104 318 C103.34 318 102.68 318 102 318 C102 317.01 102 316.02 102 315 C101.34 315 100.68 315 100 315 C98.53779721 312.43964079 97.08014847 309.8768644 95.625 307.3125 C95.2125 306.59126953 94.8 305.87003906 94.375 305.12695312 C92.31567728 301.48992349 90.41710948 297.94766212 89 294 C88.34 294 87.68 294 87 294 C86.67128906 293.36835938 86.34257812 292.73671875 86.00390625 292.0859375 C81.75733387 284.09915909 76.96163484 276.55271081 72 269 C67.57674291 272.70109266 63.44442162 276.48896387 59.48046875 280.6796875 C58 282 58 282 56 282 C56 282.66 56 283.32 56 284 C55.34 284 54.68 284 54 284 C54 284.66 54 285.32 54 286 C53.34 286 52.68 286 52 286 C52 286.66 52 287.32 52 288 C50.42578125 289.55078125 50.42578125 289.55078125 48.3125 291.3125 C45.85393677 293.39815946 43.53349711 295.46650289 41.25 297.75 C39.26714329 299.73285671 37.28850482 301.38957068 35 303 C31.5528401 301.59478832 30.22876104 300.23437729 28.4375 297 C25.63153637 292.10013888 22.75632972 287.25542397 19.8125 282.4375 C19.34360352 281.66857422 18.87470703 280.89964844 18.39160156 280.10742188 C14.62763583 273.96206796 10.73577965 267.90664532 6.79882812 261.87109375 C3.40297991 256.65586408 0.1320812 251.37872172 -3 246 C-6.75180831 247.70236236 -9.39511164 250.00252547 -12.4140625 252.7578125 C-14 254 -14 254 -16 254 C-16 254.66 -16 255.32 -16 256 C-17.6171875 257.4453125 -17.6171875 257.4453125 -19.875 259.125 C-20.70644531 259.7540625 -21.53789063 260.383125 -22.39453125 261.03125 C-23.25433594 261.6809375 -24.11414063 262.330625 -25 263 C-26.52598927 264.20181538 -28.046728 265.41032362 -29.5625 266.625 C-30.79033203 267.60726562 -30.79033203 267.60726562 -32.04296875 268.609375 C-34.38799685 270.50522334 -36.72196965 272.41249834 -39.05078125 274.328125 C-39.76355225 274.91255371 -40.47632324 275.49698242 -41.21069336 276.09912109 C-42.63214848 277.26546791 -44.05102055 278.43497128 -45.46704102 279.60791016 C-46.12502686 280.14722168 -46.7830127 280.6865332 -47.4609375 281.2421875 C-48.04665527 281.7254248 -48.63237305 282.20866211 -49.23583984 282.70654297 C-51.07633614 284.05596857 -52.93404674 285.0387618 -55 286 C-54.44395337 280.98785742 -52.73913828 277.01144753 -50.5 272.5625 C-34.05482933 238.58782047 -23.60350346 200.65605528 -21.24609375 162.9375 C-21 160 -21 160 -20.4934845 157.36973572 C-19.89250993 153.26600913 -19.85545767 149.2877395 -19.8581543 145.14672852 C-19.85467987 144.27571503 -19.85120544 143.40470154 -19.84762573 142.5072937 C-19.8402926 140.62000219 -19.83493425 138.73270218 -19.83133507 136.84539986 C-19.82411364 133.83509175 -19.80839858 130.82494146 -19.78999329 127.81468201 C-19.73783778 119.25628022 -19.68973652 110.69796104 -19.67407227 102.1394043 C-19.663845 96.89324322 -19.63414634 91.64747579 -19.59275246 86.40147209 C-19.58063246 84.42488558 -19.57528541 82.44824293 -19.57755089 80.47162056 C-19.5942475 61.12204103 -18.10661937 40.20453588 -9.5625 22.5 C-7.51844339 18.15407783 -5.67027039 13.77373685 -3.9140625 9.3046875 C-2.67258535 6.17446733 -1.34261318 3.08801031 0 0 Z " fill="#000" transform="translate(116,108)"/>
<path d="M0 0 C0.92554688 0.70511719 1.85109375 1.41023438 2.8046875 2.13671875 C3.89136719 3.05904297 3.89136719 3.05904297 5 4 C5 4.66 5 5.32 5 6 C8.82680963 8.12600535 12.15509135 9.35991306 16.54296875 8.50390625 C23.0488201 6.18793849 27.80989762 3.16348177 33.00390625 -1.390625 C35 -3 35 -3 37 -3 C37 -3.66 37 -4.32 37 -5 C37.66 -5 38.32 -5 39 -5 C39.226875 -5.53625 39.45375 -6.0725 39.6875 -6.625 C41.43382056 -9.78500863 43.6402849 -12.2676983 46 -15 C46.66 -14.34 47.32 -13.68 48 -13 C43.267858 -0.4180695 37.32512749 10.51973393 29.30224609 21.25097656 C27.9941925 23.00779995 26.70817213 24.77906936 25.42578125 26.5546875 C24.61783269 27.66192942 23.80926598 28.7687206 23 29.875 C22.278125 30.86242187 21.55625 31.84984375 20.8125 32.8671875 C20.214375 33.57101563 19.61625 34.27484375 19 35 C18.34 35 17.68 35 17 35 C16.76023437 35.556875 16.52046875 36.11375 16.2734375 36.6875 C14.71928734 39.50976041 12.8025826 41.62708607 10.625 44 C9.85414063 44.845625 9.08328125 45.69125 8.2890625 46.5625 C7.53367187 47.366875 6.77828125 48.17125 6 49 C5.28585937 49.763125 4.57171875 50.52625 3.8359375 51.3125 C2 53 2 53 0 53 C0 53.66 0 54.32 0 55 C-1.4609375 56.5078125 -1.4609375 56.5078125 -3.375 58.125 C-4.00148438 58.66382812 -4.62796875 59.20265625 -5.2734375 59.7578125 C-7 61 -7 61 -9 61 C-9 61.66 -9 62.32 -9 63 C-12.46153846 66 -12.46153846 66 -15 66 C-15.33 66.99 -15.66 67.98 -16 69 C-19.44444444 72 -19.44444444 72 -22 72 C-22 72.66 -22 73.32 -22 74 C-23.4609375 75.2890625 -23.4609375 75.2890625 -25.375 76.625 C-26.00148438 77.07101563 -26.62796875 77.51703125 -27.2734375 77.9765625 C-29 79 -29 79 -31 79 C-31 79.66 -31 80.32 -31 81 C-34.16305902 83.46226152 -37.59383019 85.54363071 -40.97070312 87.70068359 C-43.20146784 89.12899565 -45.42063379 90.57453697 -47.640625 92.01953125 C-51.68114301 94.6368365 -55.76193583 97.17962038 -59.87353516 99.68359375 C-61.65580465 100.78692293 -63.40131429 101.94933372 -65.13671875 103.125 C-67.9545428 104.80979764 -69.72095139 105.72635945 -73 106 C-77.1938488 104.89355193 -80.94847461 102.91439427 -84.71484375 100.8046875 C-92.50937467 96.52279299 -102.20446945 97.07595256 -110.7109375 99.1484375 C-114.53061836 100.56941093 -117.91011439 102.74786648 -121.32421875 104.953125 C-124 106 -124 106 -126.76171875 105.4921875 C-131.03509883 103.52303046 -135.07318818 101.26290543 -139.125 98.875 C-140.38860352 98.13576294 -140.38860352 98.13576294 -141.67773438 97.3815918 C-148.28751123 93.4847358 -154.71920541 89.41205309 -161 85 C-161.91910156 84.35546875 -162.83820313 83.7109375 -163.78515625 83.046875 C-169.61326228 78.88277111 -175.18790836 74.47113459 -180.6875 69.8828125 C-183.05246466 67.89627792 -183.05246466 67.89627792 -186 66 C-186 65.34 -186 64.68 -186 64 C-186.57234375 63.7421875 -187.1446875 63.484375 -187.734375 63.21875 C-190.21128995 61.88634058 -192.1341166 60.34943882 -194.25 58.5 C-194.95640625 57.8915625 -195.6628125 57.283125 -196.390625 56.65625 C-198 55 -198 55 -198 53 C-198.88751953 52.60167969 -198.88751953 52.60167969 -199.79296875 52.1953125 C-206.2795352 48.68223404 -214.67642174 39.97073479 -217 33 C-217.66 33 -218.32 33 -219 33 C-220.33203125 31.49609375 -220.33203125 31.49609375 -221.8125 29.4375 C-222.59947266 28.34888672 -222.59947266 28.34888672 -223.40234375 27.23828125 C-223.92957031 26.49964844 -224.45679688 25.76101562 -225 25 C-225.49628906 24.33355469 -225.99257812 23.66710937 -226.50390625 22.98046875 C-230 18.24928775 -230 18.24928775 -230 16 C-230.66 16 -231.32 16 -232 16 C-238.03859019 7.88622866 -244.8275389 -3.95033344 -246 -14 C-243.20171644 -13.61402985 -242.1794116 -13.19863427 -240.25 -11.0625 C-239 -9 -239 -9 -239 -7 C-238.34 -7 -237.68 -7 -237 -7 C-237 -6.34 -237 -5.68 -237 -5 C-236.34 -5 -235.68 -5 -235 -5 C-235 -4.34 -235 -3.68 -235 -3 C-234.41863281 -2.73058594 -233.83726562 -2.46117187 -233.23828125 -2.18359375 C-230.98843765 -0.99388588 -229.1713446 0.34961624 -227.1875 1.9375 C-222.05770031 5.82514856 -216.44875342 8.70739671 -209.9609375 9.31640625 C-206.61701317 8.77684874 -205.06337185 6.56250236 -202.90234375 4.09765625 C-181.82612594 -19.14244429 -144.9120663 -33.68633877 -114.31640625 -35.875 C-71.97924222 -37.47074705 -32.65549345 -28.18287636 0 0 Z " fill="#000" transform="translate(349,61)"/>
<path d="M0 0 C3.57188391 1.48950989 6.18822202 3.36395815 9 6 C9.886875 6.804375 10.77375 7.60875 11.6875 8.4375 C12.450625 9.283125 13.21375 10.12875 14 11 C14.46921875 11.45375 14.9384375 11.9075 15.421875 12.375 C26.94927512 24.25891765 28.19063402 40.66192127 28.125 56.25 C28.09664063 57.49007812 28.06828125 58.73015625 28.0390625 60.0078125 C27.92299895 66.4324266 27.92299895 66.4324266 30.57519531 72.03955078 C32.63964827 73.62724444 34.67986065 74.82184007 37 76 C38.28279312 76.77610097 39.56412251 77.55462809 40.84375 78.3359375 C42.05931311 79.02130819 43.27804598 79.70108974 44.5 80.375 C45.13164062 80.72949219 45.76328125 81.08398438 46.4140625 81.44921875 C47.9398557 82.30458766 49.46950665 83.15306969 51 84 C50.64880827 86.83417891 50.21508776 87.81648089 48.00390625 89.703125 C47.19824219 90.21359375 46.39257812 90.7240625 45.5625 91.25 C44.35787109 92.03117187 44.35787109 92.03117187 43.12890625 92.828125 C41 94 41 94 39 94 C39 94.66 39 95.32 39 96 C37.68 96.33 36.36 96.66 35 97 C35 97.66 35 98.32 35 99 C34.34 99 33.68 99 33 99 C32.773125 99.53625 32.54625 100.0725 32.3125 100.625 C30.54429911 103.82460161 28.46329797 106.29037223 26 109 C25.34 109 24.68 109 24 109 C23.58427734 110.12535156 23.58427734 110.12535156 23.16015625 111.2734375 C22.10944044 113.74279653 21.02965808 115.49305043 19.4375 117.625 C9.54658889 132.28087558 4.22476126 149.27552758 -1 166 C-1.53602307 167.6941482 -2.0724523 169.38816796 -2.609375 171.08203125 C-3.75650442 174.71628937 -4.8852671 178.35568089 -6 182 C-7.32 182 -8.64 182 -10 182 C-10.18062988 181.42258057 -10.36125977 180.84516113 -10.54736328 180.25024414 C-17.95137874 156.53305252 -17.95137874 156.53305252 -27.0625 133.4375 C-27.37888428 132.71143555 -27.69526855 131.98537109 -28.02124023 131.23730469 C-30.02415713 126.78226654 -32.33557898 122.71462173 -35.04467773 118.64868164 C-36 117 -36 117 -36 115 C-36.66 115 -37.32 115 -38 115 C-42 109.58823529 -42 109.58823529 -42 107 C-42.66 107 -43.32 107 -44 107 C-45.5859375 105.35546875 -45.5859375 105.35546875 -47.375 103.1875 C-49.23566282 100.93749143 -50.86872703 99.09649715 -53.2265625 97.36328125 C-53.81179687 96.91339844 -54.39703125 96.46351563 -55 96 C-55 95.34 -55 94.68 -55 94 C-55.680625 93.773125 -56.36125 93.54625 -57.0625 93.3125 C-60.79614324 91.64427643 -63.72163421 89.44270392 -67 87 C-66.64380669 84.39665104 -66.38385229 83.29668437 -64.26586914 81.65966797 C-63.16166626 81.08176514 -63.16166626 81.08176514 -62.03515625 80.4921875 C-60.83536133 79.84830078 -60.83536133 79.84830078 -59.61132812 79.19140625 C-58.3496582 78.53978516 -58.3496582 78.53978516 -57.0625 77.875 C-55.40605128 77.00023185 -53.75103348 76.12274722 -52.09765625 75.2421875 C-51.36039307 74.8591748 -50.62312988 74.47616211 -49.86352539 74.08154297 C-47.84621315 73.01729997 -47.84621315 73.01729997 -46 71 C-45.61524881 68.05843474 -45.61524881 68.05843474 -45.54296875 64.5859375 C-45.48520264 63.27447754 -45.42743652 61.96301758 -45.36791992 60.61181641 C-45.33926849 59.91904602 -45.31061707 59.22627563 -45.28109741 58.51251221 C-44.52669567 41.28401305 -42.51948702 24.77462469 -31 11 C-30.34 11 -29.68 11 -29 11 C-29 10.34 -29 9.68 -29 9 C-28.34 9 -27.68 9 -27 9 C-27 8.34 -27 7.68 -27 7 C-18.95808013 -0.5307809 -10.43856188 -1.73794995 0 0 Z " fill="#000" transform="translate(258,181)"/>
<path d="M0 0 C1.9140625 0.62109375 1.9140625 0.62109375 4 2 C6.30262709 8.97796122 7.11786606 17.18209372 4 24 C-0.68630761 31.48450868 -7.35101114 35.36498152 -15.69921875 37.78125 C-25.62206982 39.93285252 -35.59819446 38.84535687 -45 35 C-45.66 34.34 -46.32 33.68 -47 33 C-47 32.01 -47 31.02 -47 30 C-46.4831665 29.72438232 -45.96633301 29.44876465 -45.43383789 29.16479492 C-35.08133319 23.61991248 -24.9568808 17.91291379 -15.20727539 11.35424805 C-10.19032162 8 -10.19032162 8 -8 8 C-8 7.34 -8 6.68 -8 6 C-6.25 4.4921875 -6.25 4.4921875 -4 2.875 C-3.2575 2.33617187 -2.515 1.79734375 -1.75 1.2421875 C-0.88375 0.62730469 -0.88375 0.62730469 0 0 Z " fill="#000" transform="translate(336,154)"/>
<path d="M0 0 C4.9645019 0.44961527 8.08037234 3.03333626 11.875 6 C23.81470771 15.02977156 36.74589 22.10034274 50 29 C49.8046875 30.86328125 49.8046875 30.86328125 49 33 C39.9373271 38.26705159 28.74886017 38.96034486 18.69921875 36.78125 C10.26299952 34.33950782 3.87613533 30.42082404 -1 23 C-3.71221109 16.39635561 -3.96925703 10.13539686 -1.5 3.5 C-1.005 2.345 -0.51 1.19 0 0 Z " fill="#000" transform="translate(161,155)"/>
<path d="M0 0 C2.79828356 0.38597015 3.8205884 0.80136573 5.75 2.9375 C7 5 7 5 7 7 C7.66 7 8.32 7 9 7 C8.67 8.32 8.34 9.64 8 11 C7.34 11 6.68 11 6 11 C5.67 11.99 5.34 12.98 5 14 C2.46690767 9.35796103 0.53484401 5.34844008 0 0 Z " fill="#CCCACB" transform="translate(103,47)"/>
<path d="M0 0 C1.08571289 -0.00483398 1.08571289 -0.00483398 2.19335938 -0.00976562 C7.5449953 0.0449953 7.5449953 0.0449953 9.8125 2.3125 C8.77609375 2.28929687 7.7396875 2.26609375 6.671875 2.2421875 C5.30209056 2.22342333 3.9322983 2.20522382 2.5625 2.1875 C1.53962891 2.16236328 1.53962891 2.16236328 0.49609375 2.13671875 C-3.24721301 2.10037597 -6.04906026 2.17537198 -9.1875 4.3125 C-9.8475 4.9725 -10.5075 5.6325 -11.1875 6.3125 C-11.1875 5.6525 -11.1875 4.9925 -11.1875 4.3125 C-11.8475 3.9825 -12.5075 3.6525 -13.1875 3.3125 C-8.90446493 0.12336387 -5.16554042 -0.11686743 0 0 Z " fill="#000" transform="translate(250.1875,180.6875)"/>
<path d="M0 0 C-1.46966358 3.39859703 -3.38037514 5.64963709 -6 8.25 C-6.70125 8.95640625 -7.4025 9.6628125 -8.125 10.390625 C-10 12 -10 12 -12 12 C-10.53033642 8.60140297 -8.61962486 6.35036291 -6 3.75 C-5.29875 3.04359375 -4.5975 2.3371875 -3.875 1.609375 C-2 0 -2 0 0 0 Z " fill="#000" transform="translate(315,292)"/>
<path d="M0 0 C3.24732932 1.62366466 3.70155136 4.75387839 5 8 C1.00095031 8 -0.80200422 6.27413033 -4 4 C-2.68 2.68 -1.36 1.36 0 0 Z " fill="#949194" transform="translate(435,385)"/>
<path d="M0 0 C0.33 0 0.66 0 1 0 C1.33 3.63 1.66 7.26 2 11 C2.66 11 3.32 11 4 11 C4.33 11.99 4.66 12.98 5 14 C1.125 13.125 1.125 13.125 0 12 C-0.07244053 9.98035801 -0.08377188 7.95832876 -0.0625 5.9375 C-0.05347656 4.83277344 -0.04445313 3.72804687 -0.03515625 2.58984375 C-0.02355469 1.73519531 -0.01195312 0.88054687 0 0 Z " fill="#000" transform="translate(309,227)"/>
<path d="M0 0 C2.88575819 0.39803561 3.82189513 0.79009069 5.75 3.0625 C6.1625 3.701875 6.575 4.34125 7 5 C6.67 5.66 6.34 6.32 6 7 C5.34 6.34 4.68 5.68 4 5 C3.34 5.66 2.68 6.32 2 7 C1.34 4.69 0.68 2.38 0 0 Z " fill="#000" transform="translate(103,47)"/>
<path d="M0 0 C0.82638376 2.89234315 1 4.88742431 1 8 C-0.375 9.75 -0.375 9.75 -2 11 C-2.66 11 -3.32 11 -4 11 C-3.52269162 9.5410574 -3.04308958 8.08286504 -2.5625 6.625 C-2.29566406 5.81289063 -2.02882813 5.00078125 -1.75390625 4.1640625 C-1 2 -1 2 0 0 Z " fill="#B2AFB2" transform="translate(70,371)"/>
<path d="M0 0 C0.66 0 1.32 0 2 0 C0.90931332 3.77545388 0.0916909 6.47043472 -3 9 C-3.33 8.34 -3.66 7.68 -4 7 C-3.22265625 5.2734375 -3.22265625 5.2734375 -2.0625 3.375 C-1.381875 2.26125 -0.70125 1.1475 0 0 Z " fill="#9C9A9B" transform="translate(298,309)"/>
<path d="M0 0 C0.33 0 0.66 0 1 0 C1.33 2.64 1.66 5.28 2 8 C1.01 8.33 0.02 8.66 -1 9 C-1.33 9.66 -1.66 10.32 -2 11 C-1.40049704 7.31733897 -0.75241109 3.65456815 0 0 Z " fill="#8C8A8B" transform="translate(257,415)"/>
<path d="M0 0 C0.185625 0.9590625 0.185625 0.9590625 0.375 1.9375 C0.684375 2.9584375 0.684375 2.9584375 1 4 C1.66 4.33 2.32 4.66 3 5 C0.525 6.485 0.525 6.485 -2 8 C-1.125 2.25 -1.125 2.25 0 0 Z " fill="#7B797B" transform="translate(63,386)"/>
<path d="M0 0 C0.66 0.66 1.32 1.32 2 2 C1.34 3.98 0.68 5.96 0 8 C-0.33 7.01 -0.66 6.02 -1 5 C-1.66 4.67 -2.32 4.34 -3 4 C-2.01 2.68 -1.02 1.36 0 0 Z " fill="#716F71" transform="translate(395,46)"/>
<path d="M0 0 C0.33 0.99 0.66 1.98 1 3 C-0.65 4.32 -2.3 5.64 -4 7 C-4.66 6.67 -5.32 6.34 -6 6 C-4.02 4.02 -2.04 2.04 0 0 Z " fill="#A19FA1" transform="translate(354,196)"/>
</svg>
