<svg width="25" height="24" viewBox="0 0 25 24" fill="none" xmlns="http://www.w3.org/2000/svg">
<g clip-path="url(#clip0_3_166)">
<path d="M24.6562 3.75C24.6562 4.59375 23.9859 5.37187 22.8563 6C21.4922 6.75469 19.4578 7.28906 17.1234 7.44844C16.95 7.36406 16.7766 7.28437 16.5938 7.21406C14.7469 6.44062 12.2906 6 9.65625 6C9.26719 6 8.8875 6.00938 8.50781 6.02813L8.45625 6C7.32656 5.37187 6.65625 4.59375 6.65625 3.75C6.65625 1.67812 10.6875 0 15.6562 0C20.625 0 24.6562 1.67812 24.6562 3.75ZM8.18906 7.55156C8.66719 7.51875 9.15938 7.5 9.65625 7.5C12.5719 7.5 15.1594 8.07656 16.8047 8.97187C17.9672 9.60469 18.6562 10.3922 18.6562 11.25C18.6562 11.4375 18.6234 11.6203 18.5578 11.7984C18.3422 12.4172 17.7609 12.9844 16.9172 13.4625C16.9125 13.4672 16.9031 13.4672 16.8984 13.4719C16.8844 13.4812 16.8703 13.4859 16.8563 13.4953C15.2156 14.4047 12.6 14.9953 9.65625 14.9953C6.8625 14.9953 4.36406 14.4656 2.70937 13.6312C2.62031 13.5891 2.53594 13.5422 2.45156 13.4953C1.32656 12.8719 0.65625 12.0938 0.65625 11.25C0.65625 9.61875 3.15938 8.22656 6.65625 7.71563C7.14844 7.64531 7.65937 7.58906 8.18906 7.55156ZM20.1562 11.25C20.1562 10.2234 19.6594 9.37969 19.0266 8.74688C20.3531 8.54063 21.5672 8.2125 22.5984 7.78594C23.3625 7.46719 24.075 7.07344 24.6562 6.59063V8.25C24.6562 9.15469 23.8828 9.98906 22.6031 10.6359C21.9188 10.9828 21.0844 11.2781 20.1469 11.5031C20.1516 11.4187 20.1562 11.3391 20.1562 11.2547V11.25ZM18.6562 15.75C18.6562 16.5938 17.9859 17.3719 16.8563 18C16.7719 18.0469 16.6875 18.0891 16.5984 18.1359C14.9484 18.9703 12.45 19.5 9.65625 19.5C6.7125 19.5 4.09688 18.9094 2.45625 18C1.32656 17.3719 0.65625 16.5938 0.65625 15.75V14.0906C1.24219 14.5734 1.95 14.9672 2.71406 15.2859C4.56563 16.0594 7.02187 16.5 9.65625 16.5C12.2906 16.5 14.7469 16.0594 16.5984 15.2859C16.9641 15.1359 17.3156 14.9625 17.6484 14.775C17.9344 14.6156 18.2016 14.4375 18.4547 14.25C18.525 14.1984 18.5906 14.1422 18.6562 14.0906V14.25V14.5172V15.75ZM20.1562 15.75V14.25V13.0359C21.0469 12.8391 21.8672 12.5906 22.5984 12.2859C23.3625 11.9672 24.075 11.5734 24.6562 11.0906V12.75C24.6562 13.2422 24.4219 13.7344 23.9578 14.1984C23.1938 14.9625 21.8484 15.5906 20.1469 15.9984C20.1516 15.9187 20.1562 15.8344 20.1562 15.75ZM9.65625 21C12.2906 21 14.7469 20.5594 16.5984 19.7859C17.3625 19.4672 18.075 19.0734 18.6562 18.5906V20.25C18.6562 22.3219 14.625 24 9.65625 24C4.6875 24 0.65625 22.3219 0.65625 20.25V18.5906C1.24219 19.0734 1.95 19.4672 2.71406 19.7859C4.56563 20.5594 7.02187 21 9.65625 21Z" fill="#1A1A1A"/>
</g>
<defs>
<clipPath id="clip0_3_166">
<path d="M0.65625 0H24.6562V24H0.65625V0Z" fill="white"/>
</clipPath>
</defs>
</svg>
