<svg width="22" height="24" viewBox="0 0 22 24" fill="none" xmlns="http://www.w3.org/2000/svg">
<g clip-path="url(#clip0_3_169)">
<path d="M7.23438 6.75V9H14.7344V6.75C14.7344 4.67812 13.0562 3 10.9844 3C8.9125 3 7.23438 4.67812 7.23438 6.75ZM4.23438 9V6.75C4.23438 3.02344 7.25781 0 10.9844 0C14.7109 0 17.7344 3.02344 17.7344 6.75V9H18.4844C20.1391 9 21.4844 10.3453 21.4844 12V21C21.4844 22.6547 20.1391 24 18.4844 24H3.48438C1.82969 24 0.484375 22.6547 0.484375 21V12C0.484375 10.3453 1.82969 9 3.48438 9H4.23438Z" fill="#1A1A1A"/>
</g>
<defs>
<clipPath id="clip0_3_169">
<path d="M0.484375 0H21.4844V24H0.484375V0Z" fill="white"/>
</clipPath>
</defs>
</svg>
